@startuml Classes

' hide the spot
' hide circle

' avoid problems with angled crows feet
skinparam linetype ortho

class "Наряд-заказ" as task_order {
    task_order_no
    task_order_date
    service_station_name
    employee_full_name
    vehicle_VIN
    engine_no
    vehicle_model
    vehicle_year
    vehicle_reg_no
    vehicle_mileage
    vehicle_warranty_start
    customer_full_name
    customer_address
    customer_passport_no
    customer_contacts
    works_hours
    calculate_works_amount()
    calculate_parts_amount()
}

class "Работа наряд-заказа" as works_list_item {
    work_name
    work_hours
    work_qty
    calculate_work_amount()
}


class "Запчасть наряд-заказа" as parts_list_item {
    part_name
    part_no
    part_qty
    calculate_part_amount()
}

class "Работа" as work {
    work_name
    work_hours
    work_cost 
    skill
}

class "Автомобиль" as vehicles {
    customer
    vehicle_VIN
    vehicle_engine_no
    model_name
    manufacturer_name
    vehicle_year
    vehicle_reg_no
    vehicle_mileage
    vehicle_warranty_start
}

class "Модель" as vehicle_model {
    model_name
    manufacturer_name
}

class "Производитель" as vehicle_manufacturer {
    manufacturer_name
}

class "Клиент" as customers {
    customer_surname
    customer_name
    customer_patronymic
    customer_address
    customer_passport_no
    customer_contacts
}

class "Сотрудник" as employees {
    employee_surname
    employee_name
    employee_patronymic
    position_name
}

class "Механик" as mechanics {
    skill_name
}

class "Квалификация" as skills {
    skill_name
}

class "Запчасть" as part {
    part_no
    part_name
    part_price
}

class "СТО" as service_stations {
    service_station_name
    service_station_address
}

class "Должность" as positions {
    position_name 
}

class "Запись на ремонт" as record {
    record_no
    record_date
    repair_date
    repair_time_start
    repair_time_finish
    repair_description
    service_station_name
    employee_full_name
    vehicle_VIN
    engine_no
    vehicle_model
    vehicle_year
    vehicle_reg_no
    vehicle_mileage
    vehicle_warranty_start
    customer_full_name
    customer_address
    customer_passport_no
    customer_contacts
}

class "Отказ клиента" as customer_refusals {
    customer_refusal_date
    customer_id
    customer_full_name
    refusal_id
    customer_refusal_description
}

class "Причина отказа" as refusals {
    refusal_type
}

task_order   "1"*--"1..*" works_list_item: "содержит"
task_order   "1"*--"0..*" parts_list_item: "содержит"
task_order   "0..*"--"1" service_stations 
task_order   "0..*"--"1" employees 
task_order   "0..*"--"1" vehicles: " содержит информацию о ремонте"
record       "0..*"--"1" service_stations: "оформлен на"
record       "0..*"--"1" employees: " оформлен"
record       "0..*"--"1" vehicles 
works_list_item "0..*"--"1" work: "содержит"
parts_list_item "0..*"--"1" part: "содержит"
vehicles     "0..*"--"1" customers: " принадлежит"
vehicles     "0..*"--"1" vehicle_model: "является" 
vehicle_model "0..*"--"1" vehicle_manufacturer: "произведена " 
employees    "0..*"--"1" positions: "занимает "
employees    "1"<|--"1" mechanics: "является"
mechanics    "0..*"--"1" skills: "обладает"
customer_refusals "0..*"--"1" customers: "принадлежит"
customer_refusals "0..*"--"1" refusals: "является"

@enduml
